<svg xmlns="http://www.w3.org/2000/svg" version="1.1" xmlns:xlink="http://www.w3.org/1999/xlink" 
xmlns:svgjs="http://svgjs.dev/svgjs" 
width="200" height="150" 
viewBox="0 0 2000 1500">
<rect width="200" height="150" fill="#111111">
</rect>
<g transform="matrix(0.75,0,0,0.75,249.64459154581937,144.16545478723435)">
<svg viewBox="0 0 175 141" data-background-color="#111111" 
preserveAspectRatio="xMidYMid meet" 
height="1611" width="2000" 
xmlns="http://www.w3.org/2000/svg" 
xmlns:xlink="http://www.w3.org/1999/xlink">
<g id="tight-bounds" transform="matrix(1,0,0,1,0.04146431965440911,0.19949999999997203)">
<svg viewBox="0 0 174.91707136069118 140.60052000000002" 
height="140.60052000000002" width="174.91707136069118">
<rect width="174.91707136069118" height="140.601" 
fill="url(#54757678-7ff7-4547-b673-6bbb8ea4eaf3)" 
mask="url(#7dce2875-a64d-4dee-9c71-f4f9a789f859)" 
data-fill-palette-color="tertiary"></rect>
<g>
<svg viewBox="0 0 174.91707136069118 140.60052000000002" 
height="140.60052000000002" width="174.91707136069118">
<g>
<svg viewBox="0 0 174.91707136069118 140.60052000000002" 
height="140.60052000000002" width="174.91707136069118">
<g>
<path d="M0 140.601v-140.601h174.917v140.601z" 
fill="url(#54757678-7ff7-4547-b673-6bbb8ea4eaf3)" 
stroke="transparent" stroke-width="0" rx="0%" data-fill-palette-color="tertiary">
</path>
<path d="M3.283 137.317v-134.034h168.351v134.034z" 
fill="#111111" stroke="transparent" stroke-width="0" rx="0%" 
data-fill-palette-color="quaternary">
</path>
<path d="M9.85 130.751v-120.901h155.217v120.901z" 
fill="url(#54757678-7ff7-4547-b673-6bbb8ea4eaf3)" stroke="transparent" 
stroke-width="0" data-fill-palette-color="tertiary">
</path>
</g>
<g transform="matrix(1,0,0,1,19.699740000000013,19.69974)" 
id="textblocktransform">
<svg viewBox="0 0 135.51759136069117 101.20104000000002" 
height="101.20104000000002" width="135.51759136069117" 
id="textblock">
<g>
<svg viewBox="0 0 135.51759136069117 101.20104000000002" 
height="101.20104000000002" width="135.51759136069117">
<g transform="matrix(1,0,0,1,0,0)">
<svg width="135.51759136069117" viewBox="2.42 -23.97 45.4 33.91" 
height="101.20104000000002" data-palette-color="#111111">
<path d="M4.71-23.05L4.71-23.05Q6.05-23.05 6.99-21.02 7.93-18.99 9.3-13.31 10.67-7.62 12.08-6.23L12.08-6.23Q13.43-6.23 15.09-10.23L15.09-10.23Q16.02-12.45 17.07-16.97 18.12-21.48 18.77-22.72 19.43-23.95 20.65-23.95L20.65-23.95 21.19-23.95Q22.73-23.95 22.73-22.31L22.73-22.31Q22.73-21.51 20.57-11.87 18.41-2.22 16.48 1.71 14.55 5.64 11.9 7.79 9.25 9.94 7.15 9.94L7.15 9.94 6.79 9.94Q5.18 9.94 5.18 8.89L5.18 8.89Q5.18 8.06 7.51 6.57 9.84 5.08 10.25 4.57L10.25 4.57Q11.74 2.73 11.74 0.73L11.74 0.73Q11.74-0.29 9.39-3.87 7.03-7.45 5.69-10.77L5.69-10.77Q2.42-18.87 2.42-21.46L2.42-21.46Q2.42-23.05 4.71-23.05ZM26.41-23.1L26.41-23.1Q26.41-23.95 27.87-23.95 29.32-23.95 30.16-23.36 31-22.78 31.8-21.09 32.59-19.41 34.53-12.61 36.47-5.81 37.16-5.81L37.16-5.81Q37.72-5.81 40.13-13.05 42.55-20.29 43.48-22.13 44.41-23.97 46.12-23.97 47.82-23.97 47.82-22.9L47.82-22.9Q47.82-22.46 45.43-15.1 43.04-7.74 40.74-3.03L40.74-3.03Q39.87-1.2 39.06-0.68 38.25-0.17 36.94-0.17 35.62-0.17 34.95-0.71 34.27-1.25 32.83-4.37 31.39-7.5 28.9-15.16 26.41-22.83 26.41-23.1Z" 
opacity="1" 
transform="matrix(1,0,0,1,0,0)" 
fill="#111111" 
class="wordmark-text-0" 
data-fill-palette-color="quaternary" 
id="text-0">
</path>
</svg>
</g></svg>
</g></svg></g></svg></g><g></g></svg></g><defs></defs>
<mask id="7dce2875-a64d-4dee-9c71-f4f9a789f859">
<g id="SvgjsG3561">
<svg viewBox="0 0 174.91707136069118 140.60052000000002" 
height="140.60052000000002" width="174.91707136069118">
<g>
<svg viewBox="0 0 174.91707136069118 140.60052000000002" 
height="140.60052000000002" width="174.91707136069118">
<g>
<svg viewBox="0 0 174.91707136069118 140.60052000000002" 
height="140.60052000000002" width="174.91707136069118">
<g>
<path d="M0 140.601v-140.601h174.917v140.601z" fill="white" 
stroke="transparent" stroke-width="0" rx="0%">
</path>
<path d="M3.283 137.317v-134.034h168.351v134.034z" fill="black" 
stroke="transparent" stroke-width="0" rx="0%">
</path>
<path d="M9.85 130.751v-120.901h155.217v120.901z" fill="white" 
stroke="transparent" stroke-width="0">
</path>
</g>
<g transform="matrix(1,0,0,1,19.699740000000013,19.69974)" id="SvgjsG3560">
<svg viewBox="0 0 135.51759136069117 101.20104000000002" 
height="101.20104000000002" width="135.51759136069117" 
id="SvgjsSvg3559">
<g>
<svg viewBox="0 0 135.51759136069117 101.20104000000002" 
height="101.20104000000002" width="135.51759136069117">
<g transform="matrix(1,0,0,1,0,0)">
<svg width="135.51759136069117" viewBox="2.42 -23.97 45.4 33.91" 
height="101.20104000000002" data-palette-color="#111111">
<path d="M4.71-23.05L4.71-23.05Q6.05-23.05 6.99-21.02 7.93-18.99 9.3-13.31 10.67-7.62 12.08-6.23L12.08-6.23Q13.43-6.23 15.09-10.23L15.09-10.23Q16.02-12.45 17.07-16.97 18.12-21.48 18.77-22.72 19.43-23.95 20.65-23.95L20.65-23.95 21.19-23.95Q22.73-23.95 22.73-22.31L22.73-22.31Q22.73-21.51 20.57-11.87 18.41-2.22 16.48 1.71 14.55 5.64 11.9 7.79 9.25 9.94 7.15 9.94L7.15 9.94 6.79 9.94Q5.18 9.94 5.18 8.89L5.18 8.89Q5.18 8.06 7.51 6.57 9.84 5.08 10.25 4.57L10.25 4.57Q11.74 2.73 11.74 0.73L11.74 0.73Q11.74-0.29 9.39-3.87 7.03-7.45 5.69-10.77L5.69-10.77Q2.42-18.87 2.42-21.46L2.42-21.46Q2.42-23.05 4.71-23.05ZM26.41-23.1L26.41-23.1Q26.41-23.95 27.87-23.95 29.32-23.95 30.16-23.36 31-22.78 31.8-21.09 32.59-19.41 34.53-12.61 36.47-5.81 37.16-5.81L37.16-5.81Q37.72-5.81 40.13-13.05 42.55-20.29 43.48-22.13 44.41-23.97 46.12-23.97 47.82-23.97 47.82-22.9L47.82-22.9Q47.82-22.46 45.43-15.1 43.04-7.74 40.74-3.03L40.74-3.03Q39.87-1.2 39.06-0.68 38.25-0.17 36.94-0.17 35.62-0.17 34.95-0.71 34.27-1.25 32.83-4.37 31.39-7.5 28.9-15.16 26.41-22.83 26.41-23.1Z" 
opacity="1" 
transform="matrix(1,0,0,1,0,0)" 
fill="black" 
class="wordmark-text-0" 
id="SvgjsPath3558">
</path></svg></g></svg></g></svg></g></svg></g><g></g></svg></g><defs><mask></mask></defs></svg>
<rect width="174.91707136069118" height="140.60052000000002" fill="black" 
stroke="none" visibility="hidden">
</rect>
</g>
</mask>
<linearGradient x1="0.054" x2="0.941" y1="0.5" y2="0.5" id="54757678-7ff7-4547-b673-6bbb8ea4eaf3">
<stop stop-color="#9c7945" offset="0">
</stop>
<stop stop-color="#faf3aa" offset="0.498">
</stop>
<stop stop-color="#9c7945" offset="1">
</stop>
</linearGradient>
</svg>
<rect width="174.91707136069118" height="140.60052000000002" fill="none" 
stroke="none" visibility="hidden"></rect></g></svg></g></svg>